<svg width="57" height="57" viewBox="0 0 512 512" fill="none" xmlns="http://www.w3.org/2000/svg">
  <rect width="512" height="512" rx="128" fill="#0ea5e9"/>
  <path d="M256 128C185.307 128 128 185.307 128 256s57.307 128 128 128 128-57.307 128-128S326.693 128 256 128zm0 224c-52.935 0-96-43.065-96-96s43.065-96 96-96 96 43.065 96 96-43.065 96-96 96z" fill="white"/>
  <path d="M256 160c-52.935 0-96 43.065-96 96s43.065 96 96 96 96-43.065 96-96-43.065-96-96-96zm0 160c-35.346 0-64-28.654-64-64s28.654-64 64-64 64 28.654 64 64-28.654 64-64 64z" fill="#0ea5e9"/>
  <circle cx="256" cy="256" r="32" fill="white"/>
</svg>