<svg xmlns="http://www.w3.org/2000/svg" width="200" height="200" viewBox="0 0 200 200">
  <rect width="200" height="200" fill="#f3f4f6"/>
  <path d="M100,65 L130,115 L70,115 Z" fill="#d1d5db"/>
  <circle cx="135" cy="85" r="10" fill="#d1d5db"/>
  <text x="100" y="145" font-family="Arial" font-size="14" text-anchor="middle" fill="#6b7280">Image Unavailable</text>
  <path d="M100,40 C78.5,40 61,57.5 61,79 C61,100.5 78.5,118 100,118 C121.5,118 139,100.5 139,79 C139,57.5 121.5,40 100,40 Z M100,114 C80.7,114 65,98.3 65,79 C65,59.7 80.7,44 100,44 C119.3,44 135,59.7 135,79 C135,98.3 119.3,114 100,114 Z" fill="#9ca3af"/>
  <path d="M120,100 L80,60" stroke="#9ca3af" stroke-width="4"/>
  <path d="M80,100 L120,60" stroke="#9ca3af" stroke-width="4"/>
</svg>